<svg preserveAspectRatio="none" overflow="visible" style="display: block;" width="40" height="40" viewBox="0 0 40 40" fill="none" xmlns="http://www.w3.org/2000/svg">
<g id="fluent:layer-24-filled">
<path id="Vector" d="M22.3124 6.07746L32.9207 13.1491C33.149 13.3013 33.3361 13.5075 33.4656 13.7494C33.595 13.9913 33.6627 14.2614 33.6627 14.5358C33.6627 14.8101 33.595 15.0803 33.4656 15.3222C33.3361 15.564 33.149 15.7703 32.9207 15.9225L22.3124 22.9958C21.6278 23.4523 20.8235 23.6959 20.0007 23.6959C19.1779 23.6959 18.3736 23.4523 17.689 22.9958L7.08069 15.9225C6.85242 15.7703 6.66526 15.564 6.53582 15.3222C6.40637 15.0803 6.33864 14.8101 6.33864 14.5358C6.33864 14.2614 6.40637 13.9913 6.53582 13.7494C6.66526 13.5075 6.85242 13.3013 7.08069 13.1491L17.689 6.07746C18.3736 5.62098 19.1779 5.37739 20.0007 5.37739C20.8235 5.37739 21.6278 5.62098 22.3124 6.07746ZM33.3774 20.6891C33.1301 21.085 32.8025 21.4246 32.4157 21.6858L22.3324 28.4925C21.6437 28.9575 20.8317 29.2059 20.0007 29.2059C19.1697 29.2059 18.3577 28.9575 17.669 28.4925L7.58569 21.6858C6.9822 21.2787 6.52858 20.6852 6.29414 19.996C6.05969 19.3068 6.05731 18.5598 6.28735 17.8691L17.689 25.4691C18.3291 25.8957 19.0748 26.1367 19.8435 26.1656C20.6121 26.1944 21.3738 26.0099 22.044 25.6325L22.3107 25.4691L33.7124 17.8691C33.8676 18.3348 33.9181 18.8291 33.8602 19.3166C33.8023 19.8041 33.6374 20.2727 33.3774 20.6891ZM33.3774 26.1058C33.1301 26.5017 32.8025 26.8412 32.4157 27.1025L22.3324 33.9091C21.6437 34.3741 20.8317 34.6226 20.0007 34.6226C19.1697 34.6226 18.3577 34.3741 17.669 33.9091L7.58569 27.1025C6.9822 26.6953 6.52858 26.1018 6.29414 25.4126C6.05969 24.7235 6.05731 23.9765 6.28735 23.2858L17.689 30.8858C18.3291 31.3123 19.0748 31.5534 19.8435 31.5822C20.6121 31.611 21.3738 31.4265 22.044 31.0491L22.3107 30.8858L33.7124 23.2858C33.8676 23.7515 33.9181 24.2458 33.8602 24.7332C33.8023 25.2207 33.6374 25.6894 33.3774 26.1058Z" fill="#888888"/>
</g>
</svg>
