<svg preserveAspectRatio="none" overflow="visible" style="display: block;" width="11.6667" height="12.3013" viewBox="0 0 11.6667 12.3013" fill="none" xmlns="http://www.w3.org/2000/svg">
<path id="Vector" d="M8.31253 9.04167H2.9167C1.30961 9.04167 3.0465e-05 7.73208 3.0465e-05 6.125C-0.00257935 5.5556 0.162543 4.99803 0.474795 4.52187C0.787046 4.04572 1.2326 3.67205 1.75586 3.4475C1.80742 2.51665 2.21328 1.64083 2.89016 0.999753C3.56703 0.358676 4.46359 0.000957425 5.39586 0C6.92128 0 8.28336 0.9625 8.81128 2.37417C9.6049 2.4935 10.3294 2.89344 10.8534 3.50138C11.3773 4.10931 11.6658 4.88495 11.6667 5.6875C11.6667 7.53667 10.1617 9.04167 8.31253 9.04167ZM8.50561 9.57717L7.33953 11.9093L8.12236 12.3002L9.28845 9.96858L8.50561 9.57717ZM5.58836 9.57833L4.4217 11.9105L5.20453 12.3013L6.3712 9.96975L5.58836 9.57833ZM2.67053 9.57658L1.50503 11.9088L2.28786 12.2996L3.45453 9.968L2.67053 9.57658Z" fill="#4A4A4A"/>
</svg>
