<svg preserveAspectRatio="none" overflow="visible" style="display: block;" width="24" height="24" viewBox="0 0 24 24" fill="none" xmlns="http://www.w3.org/2000/svg">
<g id="bi:geo-fill">
<path id="Vector" fill-rule="evenodd" clip-rule="evenodd" d="M6 6C6.00011 4.84534 6.33338 3.71523 6.95984 2.74529C7.5863 1.77534 8.47932 1.00676 9.53176 0.53176C10.5842 0.0567623 11.7513 -0.104472 12.8931 0.067405C14.0349 0.239282 15.1029 0.736968 15.9688 1.50074C16.8348 2.26452 17.462 3.26194 17.7751 4.37333C18.0883 5.48472 18.0741 6.66286 17.7343 7.76638C17.3945 8.8699 16.7434 9.85194 15.8593 10.5946C14.9752 11.3373 13.8956 11.8092 12.75 11.9535V20.25C12.75 20.4489 12.671 20.6397 12.5303 20.7803C12.3897 20.921 12.1989 21 12 21C11.8011 21 11.6103 20.921 11.4697 20.7803C11.329 20.6397 11.25 20.4489 11.25 20.25V11.955C9.79945 11.7722 8.46553 11.0662 7.49882 9.96935C6.53211 8.87255 5.99913 7.46202 6 6ZM9.7395 18.861C9.77203 19.0571 9.72536 19.2581 9.60976 19.4198C9.49416 19.5816 9.31909 19.6908 9.123 19.7235C8.055 19.9005 7.203 20.166 6.6405 20.463C6.43357 20.5618 6.24569 20.6964 6.0855 20.8605C6.04917 20.9 6.02022 20.9458 6 20.9955V21L6.003 21.012L6.027 21.0615C6.0858 21.1486 6.15942 21.2248 6.2445 21.2865C6.492 21.4815 6.897 21.6915 7.464 21.879C8.5905 22.254 10.194 22.5 12 22.5C13.806 22.5 15.4095 22.2555 16.536 21.879C17.103 21.69 17.508 21.4815 17.7555 21.2865C17.8411 21.2249 17.9152 21.1488 17.9745 21.0615L17.997 21.012L18 21V20.994C17.9798 20.9443 17.9508 20.8985 17.9145 20.859C17.7542 20.6954 17.5663 20.5614 17.3595 20.463C16.7955 20.166 15.945 19.9005 14.877 19.7235C14.7775 19.71 14.6817 19.6767 14.5954 19.6255C14.509 19.5743 14.4338 19.5064 14.3742 19.4256C14.3146 19.3448 14.2718 19.2528 14.2484 19.1552C14.225 19.0576 14.2214 18.9563 14.2379 18.8572C14.2543 18.7582 14.2905 18.6635 14.3443 18.5787C14.398 18.4939 14.4683 18.4208 14.5508 18.3636C14.6334 18.3065 14.7265 18.2665 14.8248 18.246C14.9231 18.2256 15.0245 18.2251 15.123 18.2445C16.278 18.435 17.301 18.7365 18.0585 19.1355C18.75 19.5 19.5 20.1 19.5 21C19.5 21.639 19.11 22.128 18.684 22.4655C18.249 22.8075 17.664 23.085 17.01 23.3025C15.693 23.742 13.9215 24 12 24C10.0785 24 8.307 23.742 6.99 23.3025C6.336 23.085 5.751 22.8075 5.316 22.4655C4.89 22.128 4.5 21.639 4.5 21C4.5 20.1015 5.25 19.5 5.9415 19.1355C6.699 18.7365 7.722 18.435 8.877 18.2445C9.07312 18.212 9.27412 18.2586 9.43585 18.3742C9.59758 18.4898 9.70679 18.6649 9.7395 18.861Z" fill="#C31D12"/>
</g>
</svg>
