<svg preserveAspectRatio="none" overflow="visible" style="display: block;" width="24" height="24" viewBox="0 0 24 24" fill="none" xmlns="http://www.w3.org/2000/svg">
<g id="fluent:transparency-square-20-regular">
<path id="Vector" d="M7.2 3.6C6.24522 3.6 5.32955 3.97928 4.65442 4.65442C3.97928 5.32955 3.6 6.24522 3.6 7.2V16.8C3.6 17.7548 3.97928 18.6705 4.65442 19.3456C5.32955 20.0207 6.24522 20.4 7.2 20.4H16.8C17.7548 20.4 18.6705 20.0207 19.3456 19.3456C20.0207 18.6705 20.4 17.7548 20.4 16.8V7.2C20.4 6.24522 20.0207 5.32955 19.3456 4.65442C18.6705 3.97928 17.7548 3.6 16.8 3.6H7.2ZM4.8 7.2C4.8 6.56348 5.05286 5.95303 5.50294 5.50294C5.95303 5.05286 6.56348 4.8 7.2 4.8H8.4V8.4H4.8V7.2ZM4.8 12H8.4V8.4H12V4.8H15.6V8.4H19.2V12H15.6V15.6H19.2V16.8C19.2 17.4365 18.9471 18.047 18.4971 18.4971C18.047 18.9471 17.4365 19.2 16.8 19.2H15.6V15.6H12V19.2H8.4V15.6H4.8V12ZM12 12V8.4H15.6V12H12ZM12 12H8.4V15.6H12V12Z" fill="#262626"/>
</g>
</svg>
