<svg preserveAspectRatio="none" overflow="visible" style="display: block;" width="308.498" height="100.482" viewBox="0 0 308.498 100.482" fill="none" xmlns="http://www.w3.org/2000/svg">
<g id="paper-planes">
<path id="Vector" d="M29.145 35.9451L67.1786 24.1172L37.9187 44.3874L29.145 35.9451Z" fill="#C31D12"/>
<path id="Vector_2" d="M67.1785 24.1147L26.2131 30.8714L17.4395 22.4219L67.1785 24.1147Z" fill="#C31D12"/>
<path id="Vector_3" d="M26.2129 30.8739V41.009L29.1446 35.9451L67.1783 24.1172L26.2129 30.8739Z" fill="#455A64"/>
<path id="Vector_4" d="M26.2129 41.0093L32.0692 38.7618L29.1446 35.9453L26.2129 41.0093Z" fill="#C31D12"/>
<path id="Vector_5" d="M29.145 35.9453L32.0696 38.7618L31.1331 39.1148L29.145 35.9453Z" fill="#455A64"/>
<path id="Vector_6" d="M19.9107 39.4804C19.7896 39.4827 19.6712 39.4442 19.5746 39.3711C19.478 39.298 19.4088 39.1946 19.378 39.0774C19.3473 38.9602 19.3568 38.8361 19.4051 38.725C19.4533 38.6139 19.5376 38.5223 19.6442 38.4648C20.2925 38.1046 20.948 37.7444 21.5963 37.4635C21.6606 37.4287 21.7312 37.4074 21.804 37.4007C21.8768 37.394 21.9502 37.4022 22.0197 37.4247C22.0893 37.4472 22.1535 37.4836 22.2086 37.5317C22.2636 37.5797 22.3084 37.6385 22.3401 37.7043C22.3718 37.7702 22.3898 37.8418 22.3931 37.9148C22.3963 37.9878 22.3847 38.0607 22.3589 38.1291C22.3331 38.1975 22.2938 38.26 22.2432 38.3127C22.1926 38.3655 22.1318 38.4074 22.0645 38.436C21.4378 38.7385 20.7967 39.0627 20.17 39.4156C20.0899 39.4573 20.001 39.4795 19.9107 39.4804Z" fill="#E0E0E0"/>
<path id="Vector_7" d="M13.2616 97.6571C13.1512 97.6582 13.0431 97.6256 12.9519 97.5634C11.7803 96.7376 10.6705 95.8276 9.63111 94.8406C9.56524 94.7978 9.50949 94.7412 9.46772 94.6747C9.42596 94.6082 9.3992 94.5334 9.38931 94.4555C9.37941 94.3776 9.38662 94.2985 9.41042 94.2236C9.43423 94.1488 9.47407 94.0801 9.52716 94.0222C9.58024 93.9643 9.64531 93.9187 9.71782 93.8886C9.79033 93.8584 9.86854 93.8444 9.94701 93.8476C10.0255 93.8508 10.1023 93.871 10.1722 93.9069C10.242 93.9428 10.3032 93.9934 10.3514 94.0554C11.354 95.0071 12.4254 95.8835 13.5569 96.6774C13.6502 96.7441 13.7198 96.8388 13.7557 96.9477C13.7916 97.0566 13.7919 97.174 13.7566 97.2831C13.7213 97.3922 13.6523 97.4872 13.5594 97.5545C13.4665 97.6217 13.3546 97.6576 13.24 97.6571H13.2616ZM7.61418 92.413C7.53443 92.4139 7.45549 92.3969 7.38318 92.3633C7.31087 92.3296 7.24704 92.2802 7.19639 92.2185C6.28872 91.1108 5.46295 89.9383 4.72564 88.7105C4.65114 88.5873 4.62863 88.4395 4.66308 88.2997C4.69753 88.1599 4.78611 88.0395 4.90933 87.965C5.03255 87.8905 5.18033 87.868 5.32015 87.9024C5.45996 87.9369 5.58037 88.0254 5.65487 88.1487C6.3651 89.3327 7.15951 90.4641 8.03197 91.5342C8.12196 91.6444 8.16486 91.7856 8.15137 91.9272C8.13789 92.0688 8.0691 92.1994 7.95994 92.2906C7.86345 92.3722 7.7405 92.4157 7.61418 92.413ZM3.55871 85.858C3.45406 85.859 3.35139 85.8296 3.26315 85.7733C3.17492 85.717 3.10492 85.6364 3.06167 85.5411C2.47304 84.237 1.96779 82.8969 1.54897 81.5288C1.51824 81.3957 1.53906 81.2559 1.60725 81.1376C1.67544 81.0192 1.78593 80.9311 1.91649 80.8909C2.04705 80.8507 2.18798 80.8615 2.31091 80.921C2.43384 80.9806 2.52965 81.0845 2.57905 81.2119C2.97726 82.535 3.45843 83.8318 4.01972 85.0945C4.0499 85.1592 4.06695 85.2293 4.06988 85.3006C4.0728 85.372 4.06155 85.4432 4.03676 85.5102C4.01197 85.5772 3.97415 85.6386 3.92547 85.6909C3.8768 85.7432 3.81825 85.7853 3.7532 85.8148C3.69189 85.842 3.62576 85.8567 3.55871 85.858ZM1.21762 78.5034C1.09268 78.5023 0.971997 78.4579 0.876118 78.3777C0.78024 78.2976 0.715097 78.1868 0.691779 78.064C0.416804 76.6644 0.221995 75.2503 0.108308 73.8284C0.096845 73.6852 0.14277 73.5432 0.235981 73.4338C0.329192 73.3244 0.462053 73.2564 0.605337 73.245C0.74862 73.2335 0.890589 73.2794 1.00001 73.3727C1.10943 73.4659 1.17735 73.5987 1.18881 73.742C1.29477 75.1229 1.48238 76.4964 1.75067 77.8551C1.7653 77.9247 1.76586 77.9965 1.75231 78.0663C1.73876 78.1362 1.71138 78.2026 1.67177 78.2616C1.63217 78.3207 1.58114 78.3713 1.5217 78.4103C1.46226 78.4494 1.39561 78.4761 1.32567 78.489L1.21762 78.5034ZM0.533304 70.8102C0.462075 70.8103 0.391562 70.796 0.325932 70.7683C0.260303 70.7407 0.200887 70.7001 0.151196 70.6491C0.101505 70.598 0.0625465 70.5376 0.0366217 70.4712C0.0106968 70.4049 -0.00166856 70.334 0.000256572 70.2628C0.0171045 68.8371 0.113299 67.4134 0.288391 65.9984C0.289216 65.9225 0.306049 65.8475 0.337789 65.7785C0.36953 65.7095 0.415463 65.648 0.472596 65.5979C0.529729 65.5479 0.596776 65.5104 0.669359 65.488C0.741942 65.4656 0.818431 65.4588 0.893834 65.468C0.969237 65.4772 1.04186 65.5021 1.10696 65.5413C1.17206 65.5804 1.22818 65.6328 1.27164 65.6951C1.31511 65.7574 1.34496 65.8282 1.35924 65.9028C1.37351 65.9774 1.37189 66.0541 1.35448 66.1281C1.18794 67.5051 1.09656 68.8902 1.08076 70.2772C1.07982 70.3482 1.06491 70.4182 1.03689 70.4834C1.00887 70.5486 0.96828 70.6076 0.917443 70.6571C0.866606 70.7066 0.806516 70.7456 0.740605 70.7719C0.674694 70.7982 0.604253 70.8112 0.533304 70.8102ZM1.41211 63.1387C1.37159 63.1457 1.33017 63.1457 1.28965 63.1387C1.15045 63.1077 1.02917 63.0229 0.95225 62.9028C0.875334 62.7827 0.849026 62.637 0.879064 62.4976C1.19469 61.1023 1.5989 59.7284 2.08922 58.3845C2.11309 58.3144 2.15113 58.2499 2.20098 58.1951C2.25082 58.1403 2.3114 58.0963 2.37896 58.0659C2.44652 58.0355 2.51961 58.0193 2.59368 58.0184C2.66776 58.0174 2.74124 58.0317 2.80956 58.0603C2.87906 58.0851 2.94285 58.1236 2.99708 58.1737C3.05132 58.2237 3.09488 58.2841 3.12516 58.3514C3.15543 58.4187 3.1718 58.4914 3.17327 58.5652C3.17474 58.6389 3.16128 58.7122 3.13371 58.7807C2.66106 60.0801 2.2713 61.4082 1.96677 62.7569C1.93119 62.8739 1.85695 62.9754 1.75619 63.0448C1.65544 63.1141 1.53413 63.1472 1.41211 63.1387ZM3.9765 55.8633C3.89344 55.8666 3.81112 55.8467 3.73879 55.8057C3.67433 55.7757 3.61654 55.733 3.56881 55.6803C3.52109 55.6275 3.4844 55.5658 3.46091 55.4987C3.43741 55.4315 3.42759 55.3604 3.43201 55.2894C3.43644 55.2184 3.45502 55.1491 3.48667 55.0854C4.11539 53.8017 4.82266 52.5579 5.60445 51.3612C5.68317 51.2497 5.80123 51.172 5.93487 51.144C6.06851 51.1159 6.20783 51.1395 6.32478 51.21C6.43896 51.2865 6.51919 51.4041 6.54872 51.5383C6.57825 51.6725 6.55479 51.813 6.48326 51.9303C5.72337 53.0862 5.03768 54.2892 4.43031 55.532C4.39303 55.624 4.33079 55.7038 4.25061 55.7623C4.17043 55.8208 4.07549 55.8558 3.9765 55.8633ZM8.11841 49.3803C7.99793 49.3816 7.88077 49.3408 7.78706 49.2651C7.7309 49.2209 7.68407 49.166 7.64929 49.1035C7.6145 49.0411 7.59245 48.9724 7.58441 48.9014C7.57637 48.8303 7.5825 48.7584 7.60245 48.6898C7.6224 48.6212 7.65577 48.5572 7.70062 48.5015C8.60078 47.3895 9.56275 46.3289 10.582 45.3249C10.6833 45.2237 10.8206 45.1669 10.9637 45.1669C11.1069 45.1669 11.2442 45.2237 11.3455 45.3249C11.4467 45.4262 11.5035 45.5635 11.5035 45.7066C11.5035 45.8498 11.4467 45.9871 11.3455 46.0884C10.3638 47.0678 9.43565 48.0993 8.56502 49.1786C8.50922 49.2403 8.43977 49.288 8.36222 49.3181C8.28468 49.3481 8.20118 49.3595 8.11841 49.3515V49.3803ZM13.5353 43.8482C13.4568 43.848 13.3792 43.8305 13.3083 43.7969C13.2373 43.7632 13.1746 43.7143 13.1247 43.6537C13.0335 43.5432 12.9892 43.4014 13.0013 43.2587C13.0134 43.1159 13.081 42.9836 13.1896 42.8901C14.2862 41.9782 15.4281 41.1223 16.6111 40.3257C16.7273 40.2545 16.866 40.2298 16.9996 40.2565C17.1331 40.2832 17.2517 40.3594 17.3315 40.4698C17.4119 40.5895 17.4418 40.736 17.4149 40.8776C17.3879 41.0192 17.3062 41.1444 17.1874 41.2262C16.0332 42.0011 14.92 42.8354 13.8523 43.7257C13.7618 43.7983 13.6511 43.841 13.5353 43.8482Z" fill="#E0E0E0"/>
<path id="Vector_8" d="M18.2173 100.475C18.14 100.475 18.0636 100.458 17.994 100.424C17.3241 100.122 16.6614 99.7977 16.0275 99.4519C15.9655 99.4193 15.9106 99.3748 15.8658 99.3209C15.821 99.2671 15.7873 99.2049 15.7666 99.138C15.7458 99.0711 15.7385 99.0008 15.7449 98.9311C15.7514 98.8613 15.7715 98.7935 15.8042 98.7316C15.8714 98.6078 15.9844 98.5152 16.119 98.4734C16.2535 98.4317 16.3991 98.4442 16.5245 98.5083C17.144 98.8396 17.7851 99.1566 18.4334 99.4519C18.5446 99.5036 18.6349 99.5916 18.6894 99.7015C18.744 99.8113 18.7595 99.9364 18.7335 100.056C18.7076 100.176 18.6416 100.283 18.5465 100.361C18.4513 100.438 18.3327 100.481 18.2101 100.482L18.2173 100.475Z" fill="#E0E0E0"/>
<path id="Vector_9" d="M264.608 74.3308L295.078 54.8242L308.498 59.1318L264.608 74.3308Z" fill="#C31D12"/>
<path id="Vector_10" d="M264.608 74.3336L290.943 52.3778L285.087 45.6211L264.608 74.3336Z" fill="#C31D12"/>
<path id="Vector_11" d="M290.943 52.375V57.4678L264.608 74.3308L290.943 52.375Z" fill="#455A64"/>
<path id="Vector_12" d="M296.886 50.2496C296.755 50.2501 296.629 50.2012 296.533 50.1127C296.426 50.0173 296.361 49.8839 296.352 49.7412C296.343 49.5985 296.389 49.4578 296.482 49.3492C297.42 48.3028 298.253 47.1664 298.968 45.9564C299.04 45.8322 299.159 45.742 299.298 45.7055C299.437 45.669 299.585 45.6893 299.709 45.7619C299.834 45.8345 299.924 45.9535 299.96 46.0926C299.997 46.2318 299.977 46.3797 299.904 46.5039C299.15 47.7723 298.276 48.9662 297.296 50.0695C297.245 50.1272 297.181 50.1731 297.111 50.2042C297.04 50.2352 296.963 50.2507 296.886 50.2496ZM301.006 43.5361C300.942 43.5463 300.876 43.5463 300.812 43.5361C300.743 43.51 300.681 43.4704 300.629 43.4196C300.576 43.3688 300.535 43.3079 300.506 43.2406C300.478 43.1733 300.464 43.1009 300.464 43.0279C300.465 42.9549 300.48 42.8827 300.509 42.8158C301.018 41.5037 301.399 40.1456 301.647 38.7603C301.673 38.6189 301.754 38.4936 301.872 38.4118C301.99 38.3301 302.136 38.2987 302.277 38.3245C302.419 38.3503 302.544 38.4312 302.626 38.5494C302.708 38.6676 302.739 38.8134 302.713 38.9548C302.448 40.4064 302.045 41.8294 301.51 43.2047C301.47 43.3045 301.4 43.3895 301.31 43.4486C301.22 43.5078 301.114 43.5383 301.006 43.5361ZM302.548 35.8069C302.477 35.806 302.407 35.791 302.342 35.7629C302.278 35.7348 302.219 35.6941 302.17 35.6432C302.121 35.5922 302.083 35.5321 302.057 35.4662C302.032 35.4003 302.02 35.3301 302.022 35.2595C302.022 35.0722 302.022 34.8849 302.022 34.6976C302.019 33.4747 301.922 32.2538 301.734 31.0455C301.713 30.9034 301.749 30.7588 301.834 30.6429C301.919 30.527 302.046 30.4491 302.187 30.426C302.329 30.4071 302.473 30.4438 302.588 30.5284C302.704 30.613 302.782 30.7389 302.807 30.8798C303.002 32.1431 303.1 33.4194 303.102 34.6976C303.102 34.8921 303.102 35.0866 303.102 35.2811C303.097 35.4237 303.035 35.5586 302.932 35.6568C302.828 35.755 302.69 35.8089 302.548 35.8069ZM301.46 27.9985C301.344 27.9981 301.231 27.9599 301.139 27.8897C301.047 27.8195 300.98 27.7212 300.948 27.6095C300.535 26.2579 300.017 24.9406 299.4 23.6693C299.368 23.6056 299.35 23.5362 299.345 23.4653C299.341 23.3943 299.35 23.3231 299.374 23.256C299.397 23.1889 299.434 23.1271 299.482 23.0744C299.53 23.0217 299.587 22.979 299.652 22.949C299.781 22.8871 299.929 22.8788 300.064 22.9261C300.199 22.9733 300.31 23.0722 300.372 23.2011C301.016 24.5221 301.554 25.8928 301.979 27.2998C302 27.3674 302.007 27.4385 302 27.509C301.993 27.5795 301.973 27.6479 301.939 27.7103C301.905 27.7726 301.86 27.8277 301.805 27.8722C301.75 27.9168 301.686 27.9499 301.618 27.9697C301.568 27.9897 301.514 27.9995 301.46 27.9985ZM298.118 20.8456C298.027 20.8464 297.937 20.8236 297.857 20.7794C297.778 20.7353 297.711 20.6712 297.664 20.5935C296.891 19.408 296.042 18.2747 295.121 17.2007C295.074 17.1469 295.039 17.0844 295.017 17.0168C294.994 16.9492 294.986 16.8779 294.991 16.807C294.996 16.736 295.016 16.6668 295.048 16.6034C295.08 16.5399 295.125 16.4834 295.179 16.4372C295.232 16.3909 295.294 16.3556 295.361 16.3334C295.428 16.3112 295.498 16.3026 295.569 16.3079C295.639 16.3133 295.708 16.3326 295.771 16.3647C295.833 16.3967 295.889 16.441 295.935 16.4948C296.891 17.6064 297.772 18.7808 298.571 20.01C298.638 20.1286 298.658 20.2675 298.629 20.4003C298.6 20.5331 298.523 20.6506 298.413 20.7303C298.327 20.7937 298.224 20.8312 298.118 20.8384V20.8456ZM293.075 14.7876C292.938 14.7872 292.806 14.7328 292.708 14.6363C291.671 13.6655 290.581 12.7517 289.445 11.8991C289.388 11.8565 289.34 11.8032 289.304 11.7421C289.268 11.6811 289.244 11.6135 289.234 11.5433C289.224 11.473 289.228 11.4015 289.246 11.3328C289.263 11.264 289.294 11.1995 289.337 11.1427C289.379 11.0859 289.433 11.0381 289.494 11.002C289.555 10.9658 289.622 10.9421 289.692 10.932C289.763 10.922 289.834 10.9259 289.903 10.9435C289.972 10.9611 290.036 10.9921 290.093 11.0347C291.264 11.9098 292.385 12.8501 293.45 13.8512C293.53 13.9254 293.586 14.0222 293.61 14.1287C293.634 14.2353 293.625 14.3466 293.584 14.448C293.544 14.5495 293.473 14.6362 293.382 14.6968C293.292 14.7574 293.184 14.7891 293.075 14.7876ZM286.758 9.99017C286.656 9.98922 286.556 9.95924 286.47 9.90373C285.98 9.60119 285.468 9.29865 284.95 9.00332C284.23 8.59993 283.509 8.19655 282.746 7.81477C282.676 7.78682 282.613 7.74464 282.56 7.69094C282.508 7.63723 282.467 7.57317 282.441 7.50284C282.414 7.43251 282.403 7.35747 282.407 7.28249C282.412 7.20751 282.431 7.13425 282.466 7.06739C282.5 7.00052 282.548 6.94152 282.606 6.89414C282.664 6.84676 282.732 6.81206 282.804 6.79223C282.877 6.77241 282.952 6.76791 283.027 6.77901C283.101 6.79011 283.172 6.81658 283.235 6.85673C283.992 7.24571 284.748 7.64909 285.483 8.06689C286.016 8.36222 286.535 8.67196 287.039 8.98891C287.155 9.06322 287.239 9.17928 287.272 9.31324C287.306 9.4472 287.287 9.58891 287.219 9.70924C287.172 9.79146 287.106 9.86042 287.025 9.90959C286.944 9.95875 286.852 9.98649 286.758 9.99017ZM222.18 9.6228C222.085 9.62178 221.992 9.59599 221.91 9.548C221.828 9.5 221.759 9.43144 221.712 9.34908C221.644 9.22744 221.626 9.08388 221.662 8.94921C221.698 8.81454 221.786 8.69949 221.906 8.62874C223.16 7.90841 224.449 7.18808 225.753 6.583C225.881 6.52057 226.029 6.51128 226.163 6.55715C226.298 6.60302 226.41 6.70034 226.473 6.82791C226.533 6.95718 226.54 7.10474 226.493 7.23925C226.446 7.37376 226.349 7.48461 226.221 7.54824C224.939 8.17493 223.671 8.84485 222.439 9.55798C222.359 9.5972 222.269 9.61459 222.18 9.6084V9.6228ZM279.735 6.33088C279.66 6.33135 279.586 6.31408 279.519 6.28046C278.222 5.71139 276.882 5.17835 275.542 4.70293C275.407 4.65421 275.296 4.55361 275.234 4.42325C275.173 4.29289 275.166 4.14345 275.215 4.00781C275.263 3.87216 275.364 3.76143 275.494 3.69996C275.625 3.6385 275.774 3.63134 275.91 3.68005C277.271 4.16988 278.633 4.71013 279.958 5.2936C280.074 5.34275 280.168 5.43061 280.226 5.54209C280.284 5.65357 280.301 5.7817 280.275 5.90446C280.248 6.02722 280.18 6.13694 280.081 6.21476C279.983 6.29258 279.86 6.33364 279.735 6.33088ZM229.275 6.10758C229.169 6.1083 229.065 6.07712 228.976 6.01806C228.887 5.95901 228.819 5.87478 228.778 5.77623C228.749 5.71017 228.733 5.63885 228.731 5.5665C228.73 5.49415 228.743 5.42225 228.77 5.35507C228.797 5.28788 228.837 5.22678 228.888 5.17539C228.939 5.12399 228.999 5.08336 229.066 5.05589C230.399 4.49403 231.768 3.97539 233.136 3.50717C233.205 3.47868 233.279 3.4647 233.353 3.46613C233.428 3.46756 233.501 3.48436 233.569 3.51547C233.636 3.54659 233.697 3.59134 233.746 3.64694C233.796 3.70253 233.833 3.76776 233.857 3.83853C233.883 3.90797 233.895 3.98196 233.892 4.05612C233.889 4.13029 233.871 4.20312 233.84 4.27029C233.808 4.33746 233.763 4.39761 233.708 4.44718C233.653 4.49675 233.588 4.53472 233.518 4.55886C232.171 5.01987 230.817 5.53131 229.513 6.07876C229.436 6.10028 229.355 6.10519 229.275 6.09317V6.10758ZM272.301 3.61523C272.251 3.62223 272.2 3.62223 272.15 3.61523C270.788 3.21904 269.391 2.89489 268 2.55633C267.931 2.5412 267.865 2.51252 267.807 2.47193C267.748 2.43134 267.698 2.37963 267.66 2.31977C267.621 2.2599 267.595 2.19305 267.582 2.12302C267.57 2.05299 267.571 1.98117 267.586 1.91164C267.601 1.84211 267.63 1.77624 267.671 1.7178C267.711 1.65936 267.763 1.60948 267.823 1.57102C267.883 1.53256 267.95 1.50626 268.02 1.49364C268.09 1.48102 268.161 1.48231 268.231 1.49744C269.672 1.80719 271.069 2.17456 272.452 2.57794C272.577 2.61436 272.684 2.69458 272.755 2.80389C272.825 2.9132 272.854 3.04425 272.836 3.17299C272.817 3.30173 272.753 3.41951 272.655 3.50472C272.557 3.58992 272.431 3.63683 272.301 3.63683V3.61523ZM236.752 3.50717C236.635 3.50673 236.52 3.46777 236.426 3.39625C236.333 3.32472 236.265 3.22455 236.234 3.11099C236.214 3.04336 236.208 2.97247 236.216 2.90244C236.223 2.83241 236.245 2.76463 236.279 2.703C236.313 2.64137 236.359 2.58713 236.415 2.54341C236.47 2.49969 236.533 2.46735 236.601 2.44828C237.991 2.0593 239.418 1.72795 240.837 1.411C240.909 1.38805 240.984 1.38042 241.059 1.38861C241.135 1.3968 241.207 1.42063 241.272 1.45855C241.338 1.49646 241.394 1.54764 241.438 1.60877C241.483 1.6699 241.514 1.73963 241.529 1.81347C241.545 1.88731 241.545 1.96361 241.529 2.03746C241.514 2.11131 241.483 2.18106 241.439 2.24223C241.394 2.3034 241.338 2.35462 241.273 2.39259C241.207 2.43056 241.135 2.45444 241.06 2.46269C239.662 2.75803 238.265 3.10379 236.896 3.48557L236.752 3.50717ZM264.579 1.87922H264.471C263.066 1.65592 261.633 1.47583 260.221 1.34617C260.146 1.34536 260.073 1.32919 260.005 1.29866C259.937 1.26814 259.876 1.22393 259.826 1.16881C259.776 1.11368 259.738 1.04883 259.715 0.978308C259.691 0.907789 259.682 0.833122 259.689 0.758997C259.695 0.684871 259.717 0.612881 259.752 0.547538C259.788 0.482196 259.837 0.42491 259.895 0.379271C259.954 0.333631 260.022 0.300624 260.094 0.282315C260.166 0.264007 260.241 0.260796 260.314 0.272879C261.755 0.402539 263.196 0.582623 264.636 0.813129C264.777 0.83786 264.902 0.916438 264.986 1.03214C265.069 1.14784 265.104 1.29153 265.083 1.43262C265.058 1.54919 264.995 1.65409 264.903 1.73097C264.812 1.80785 264.698 1.85238 264.579 1.85761V1.87922ZM244.489 1.8288C244.36 1.82874 244.236 1.78305 244.139 1.69991C244.041 1.61677 243.976 1.50159 243.956 1.37499C243.935 1.23284 243.971 1.08822 244.056 0.972329C244.141 0.856439 244.268 0.778566 244.409 0.755501C245.85 0.539401 247.291 0.359317 248.731 0.23686C248.802 0.230712 248.874 0.238599 248.942 0.260069C249.01 0.281538 249.073 0.316168 249.127 0.361987C249.182 0.407806 249.227 0.463918 249.26 0.527111C249.292 0.590304 249.312 0.65934 249.319 0.730287C249.325 0.801234 249.317 0.872698 249.295 0.940597C249.274 1.0085 249.239 1.0715 249.193 1.12602C249.148 1.18053 249.092 1.22549 249.028 1.25832C248.965 1.29115 248.896 1.31121 248.825 1.31736C247.384 1.43982 245.98 1.60549 244.575 1.8288H244.489ZM256.698 1.10846C255.258 1.05804 253.817 1.05084 252.412 1.10846C252.342 1.11236 252.271 1.10187 252.204 1.07765C252.137 1.05342 252.076 1.01596 252.024 0.967504C251.973 0.919049 251.931 0.860609 251.902 0.795702C251.874 0.730796 251.859 0.660762 251.858 0.589822C251.855 0.518627 251.866 0.447575 251.891 0.380865C251.916 0.314154 251.954 0.253139 252.003 0.20143C252.053 0.14972 252.111 0.108367 252.177 0.0798097C252.242 0.0512521 252.312 0.0360721 252.384 0.035168C253.824 -0.0152553 255.265 -0.00805195 256.706 0.035168C256.777 0.0370349 256.846 0.0528658 256.911 0.0817552C256.976 0.110645 257.035 0.152025 257.083 0.203535C257.132 0.255044 257.17 0.315671 257.196 0.381953C257.221 0.448234 257.233 0.518869 257.231 0.589822C257.221 0.724947 257.16 0.851314 257.062 0.94446C256.963 1.03761 256.834 1.09091 256.698 1.09406V1.10846Z" fill="#E0E0E0"/>
</g>
</svg>
